<svg width="20" height="18" viewBox="0 0 20 18" fill="none" xmlns="http://www.w3.org/2000/svg">
<path d="M11.9917 17.05L20 9.00005L11.9917 0.950048C11.9193 0.85507 11.8275 0.776741 11.7222 0.720363C11.617 0.663985 11.5009 0.630874 11.3817 0.623273C11.2626 0.615672 11.1432 0.633757 11.0317 0.676305C10.9201 0.718852 10.819 0.784868 10.7352 0.869884C10.6514 0.9549 10.5869 1.05693 10.5459 1.16907C10.505 1.28121 10.4886 1.40083 10.4979 1.51985C10.5072 1.63887 10.5419 1.7545 10.5998 1.85891C10.6577 1.96333 10.7373 2.05409 10.8333 2.12505L16.825 8.16672H0.883335C0.662321 8.16672 0.450361 8.25451 0.294081 8.41079C0.1378 8.56707 0.0500011 8.77903 0.0500011 9.00005C0.0500011 9.22106 0.1378 9.43302 0.294081 9.5893C0.450361 9.74559 0.662321 9.83338 0.883335 9.83338L16.825 9.83338L10.8333 15.875C10.6775 16.032 10.5904 16.2444 10.5912 16.4655C10.592 16.6866 10.6806 16.8984 10.8375 17.0542C10.9944 17.21 11.2068 17.2971 11.4279 17.2963C11.6491 17.2956 11.8609 17.207 12.0167 17.05H11.9917Z" fill="#202020"/>
</svg>
