<svg width="50" height="50" viewBox="0 0 50 50" fill="none" xmlns="http://www.w3.org/2000/svg">
<g clip-path="url(#clip0_361_794)">
<path d="M28.3195 38.4167L41.6667 25L28.3195 11.5833C28.199 11.425 28.0458 11.2945 27.8705 11.2005C27.6951 11.1066 27.5015 11.0514 27.303 11.0387C27.1044 11.026 26.9054 11.0562 26.7195 11.1271C26.5336 11.198 26.3651 11.308 26.2255 11.4497C26.0858 11.5914 25.9782 11.7615 25.9099 11.9484C25.8417 12.1353 25.8144 12.3346 25.8299 12.533C25.8454 12.7314 25.9033 12.9241 25.9998 13.0981C26.0962 13.2721 26.229 13.4234 26.389 13.5417L36.3751 23.6111H9.80564C9.43728 23.6111 9.08401 23.7574 8.82355 24.0179C8.56308 24.2784 8.41675 24.6316 8.41675 25C8.41675 25.3684 8.56308 25.7216 8.82355 25.9821C9.08401 26.2426 9.43728 26.3889 9.80564 26.3889H36.3751L26.389 36.4583C26.1293 36.7199 25.9841 37.0739 25.9854 37.4424C25.9867 37.811 26.1344 38.1639 26.3959 38.4236C26.6574 38.6833 27.0114 38.8285 27.38 38.8272C27.7486 38.8259 28.1015 38.6782 28.3612 38.4167H28.3195Z" fill="#202020"/>
</g>
<defs>
<clipPath id="clip0_361_794">
<rect width="50" height="50" fill="white" transform="matrix(0 1 -1 0 50 0)"/>
</clipPath>
</defs>
</svg>
