<svg width="16" height="16" viewBox="0 0 16 16" fill="none" xmlns="http://www.w3.org/2000/svg">
<path d="M15 3L10 8L15 13C15.2652 13.2652 15.4142 13.6249 15.4142 14C15.4142 14.3751 15.2652 14.7348 15 15C14.7348 15.2652 14.3751 15.4142 14 15.4142C13.6249 15.4142 13.2652 15.2652 13 15L8 10L3 15C2.73478 15.2652 2.37507 15.4142 2 15.4142C1.62493 15.4142 1.26522 15.2652 0.999999 15C0.734782 14.7348 0.585786 14.3751 0.585786 14C0.585786 13.6249 0.734783 13.2652 1 13L6 8L1 3C0.734783 2.73478 0.585786 2.37507 0.585786 2C0.585786 1.62493 0.734783 1.26522 1 1C1.26522 0.734784 1.62493 0.585786 2 0.585787C2.37507 0.585787 2.73478 0.734784 3 1L8 6L13 1C13.2652 0.734783 13.6249 0.585786 14 0.585785C14.3751 0.585785 14.7348 0.734782 15 0.999999C15.2652 1.26522 15.4142 1.62493 15.4142 2C15.4142 2.37507 15.2652 2.73478 15 3Z" fill="#202020"/>
</svg>
