<svg width="42" height="42" viewBox="0 0 42 42" fill="none" xmlns="http://www.w3.org/2000/svg">
<path d="M39.75 20.9999C39.7501 17.0821 38.5229 13.2627 36.241 10.0782C33.959 6.89361 30.7368 4.50385 27.0269 3.24455C23.3171 1.98524 19.3059 1.91964 15.5569 3.05697C11.8078 4.19429 8.50922 6.4774 6.12432 9.58564C3.73942 12.6939 2.38805 16.4711 2.26002 20.3867C2.13198 24.3024 3.23371 28.1598 5.41047 31.4172C7.58722 34.6746 10.7296 37.1683 14.3964 38.5482C18.0631 39.928 22.07 40.1245 25.8542 39.1103" stroke="white" stroke-width="3" stroke-linecap="round"/>
<path d="M20.9998 29.3332C25.6022 29.3332 29.3332 25.6022 29.3332 20.9998C29.3332 16.3975 25.6022 12.6665 20.9998 12.6665C16.3975 12.6665 12.6665 16.3975 12.6665 20.9998C12.6665 25.6022 16.3975 29.3332 20.9998 29.3332Z" stroke="white" stroke-width="3"/>
<path d="M29.3335 14.75V24.125C29.3335 25.5063 29.8822 26.8311 30.859 27.8078C31.8357 28.7846 33.1605 29.3333 34.5418 29.3333C35.9232 29.3333 37.2479 28.7846 38.2247 27.8078C39.2014 26.8311 39.7502 25.5063 39.7502 24.125V21" stroke="white" stroke-width="3" stroke-linecap="round"/>
</svg>
