<svg width="42" height="42" viewBox="0 0 42 42" fill="none" xmlns="http://www.w3.org/2000/svg">
<path d="M20.9998 0.166504C9.49984 0.166504 0.166504 9.49984 0.166504 20.9998C0.166504 32.4998 9.49984 41.8332 20.9998 41.8332C32.4998 41.8332 41.8332 32.4998 41.8332 20.9998C41.8332 9.49984 32.4998 0.166504 20.9998 0.166504ZM30.6665 14.3332C30.354 17.6248 28.9998 25.6248 28.3123 29.3123C28.0207 30.8748 27.4373 31.3957 26.8957 31.4582C25.6873 31.5623 24.7707 30.6665 23.604 29.8957C21.7707 28.6873 20.729 27.9373 18.9582 26.7707C16.8957 25.4165 18.229 24.6665 19.4165 23.4582C19.729 23.1457 25.0623 18.2915 25.1665 17.854C25.181 17.7877 25.1791 17.7189 25.1609 17.6536C25.1427 17.5882 25.1089 17.5283 25.0623 17.479C24.9373 17.3748 24.7707 17.4165 24.6248 17.4373C24.4373 17.479 21.5207 19.4165 15.8332 23.2498C14.9998 23.8123 14.2498 24.104 13.5832 24.0832C12.8332 24.0623 11.4165 23.6665 10.354 23.3123C9.0415 22.8957 8.02067 22.6665 8.104 21.9373C8.14567 21.5623 8.6665 21.1873 9.64567 20.7915C15.729 18.1457 19.7707 16.3957 21.7915 15.5623C27.5832 13.1457 28.7707 12.729 29.5623 12.729C29.729 12.729 30.1248 12.7707 30.3748 12.979C30.5832 13.1457 30.6457 13.3748 30.6665 13.5415C30.6457 13.6665 30.6873 14.0415 30.6665 14.3332Z" fill="white"/>
</svg>
